<?xml version="1.0" encoding="utf-8"?>
<!-- Generator: Adobe Illustrator 12.0.1, SVG Export Plug-In . SVG Version: 6.00 Build 51448)  -->
<!DOCTYPE svg PUBLIC "-//W3C//DTD SVG 1.1//EN" "http://www.w3.org/Graphics/SVG/1.1/DTD/svg11.dtd" [
	<!ENTITY ns_svg "http://www.w3.org/2000/svg">
	<!ENTITY ns_xlink "http://www.w3.org/1999/xlink">
]>
<svg  version="1.1" id="Layer_1" xmlns="&ns_svg;" xmlns:xlink="&ns_xlink;" width="88" height="88" viewBox="88.926 45.776 88 88"
	 overflow="visible" enable-background="new 88.926 45.776 88 88" xml:space="preserve">
<path fill="#BFBFBF" d="M127.023,108.398c0,0,0.778,3.729,1.428,6.648c0.422,1.883,3.017,2.305,1.882,2.889
	c-1.136,0.584-7.656-1.429-11.971-4.478c-6.066-4.25-7.201-9.083-7.201-9.083"/>
<path d="M110.998,103.662c-0.391,0.099-0.617,0.486-0.521,0.876c0.065,0.194,1.267,5.157,7.494,9.505
	c4.152,2.919,10.997,4.703,12.716,4.152c0.521-0.162,0.714-0.324,0.714-0.617c0-0.355-0.453-0.647-0.94-0.973
	c-0.486-0.324-1.719-1.946-1.881-2.66c-0.648-2.854-0.845-5.677-0.845-5.709c-0.063-0.39-0.453-0.649-0.843-0.552
	c-0.325,0.063-0.584,0.356-0.584,0.714c0,0.033,0,0.098,0,0.162c0,0.031,0.194,2.888,0.843,5.742
	c0.228,1.006,1.493,2.528,2.044,2.982c-1.979-0.259-6.779-1.849-10.445-4.411c-5.742-4.021-6.909-8.63-6.942-8.661
	C111.776,103.792,111.387,103.564,110.998,103.662z"/>
<path fill="#3366FF" d="M173.736,88.156c0.486-0.617,3.665-5.223-1.006-11.646c-2.758-3.796-7.332-5.808-7.332-5.419
	c-0.03,0.391,2.889,2.726,1.104,7.526c-1.427,3.894,1.006,6.294,1.006,6.294s-1.817-2.207-6.618-0.13
	c-4.833,2.108-6.779-0.26-7.428-1.039c-0.649-0.778,0.938,6.001,5.287,8.077c7.559,3.634,12.456-1.297,12.456-1.297
	s2.141,3.05,0.648,7.169c0,0-1.492,3.99-4.249,5.385c-0.454,0.229-1.266,0.552-2.044,0.812c-3.958,1.2-8.888,0.907-13.203-2.854
	c-3.179-2.79-7.429-8.597-13.139-22.124c-2.886-6.845-9.764-15.928-22.771-17.03c-21.864-1.85-22.319,16.674-22.124,18.427
	c0,0.031,0,0.031,0,0.031c-1.007,0.163-1.882,0.454-2.53,0.845c-2.66,1.622-1.362,4.055,0.454,4.055
	c0.422,0,0.876-0.097,1.232-0.194c0,0,0.065,1.33,0.617,3.438l0.064-0.292c0,0,0.584-3.049,5.319-2.434
	c3.926,0.486,8.369,2.368,15.376,6.846c7.753,4.963,13.073,11.062,26.989,14.759c4.479,1.201,10.479,1.915,16.383,1.331
	c9.115-0.908,11.904-3.18,11.904-3.18c3.796-2.337,4.996-8.369,4.639-11.517c-0.355-3.146-1.428-5.32-1.428-5.32L173.736,88.156z"/>
<path fill="#BFBFBF" d="M94.194,88.188c0,0,0.583-3.049,5.32-2.434c3.925,0.486,8.369,2.368,15.376,6.846
	c7.753,4.963,13.074,11.062,26.99,14.759c4.476,1.201,10.51,1.915,16.381,1.331c8.792-0.908,9.927-2.466,11.775-3.31l0.132,0.13
	l-0.034-0.064c-2.66,1.784-7.622,4.834-12.748,6.585c-5.483,1.882-23.13,6.066-45.772-4.185
	c-12.165-5.516-16.154-14.469-17.484-19.333L94.194,88.188z"/>
<path fill="#FFFFFF" d="M124.427,75.569c0.39,2.465-0.94,4.444-2.919,4.444s-3.958-2.012-4.347-4.444
	c-0.39-2.466,0.94-4.444,2.919-4.444C122.092,71.125,124.039,73.104,124.427,75.569z"/>
<path d="M122.124,76.835c0.227,1.428-0.551,2.596-1.72,2.596c-1.167,0-2.303-1.168-2.529-2.596
	c-0.228-1.428,0.551-2.596,1.719-2.596S121.898,75.407,122.124,76.835z"/>
<path d="M93.481,84.523c-0.355,0.033-0.648,0.193-0.648,0.551c0,0.163,0.94,15.442,18.458,23.843
	c23.422,11.225,41.328,6.262,46.259,4.444c7.559-2.757,12.132-7.006,13.365-7.785c0.162-0.098,0.098-0.422-0.033-0.584
	c-0.13-0.162-0.355-0.195-0.52-0.063c-0.031,0.03-5.903,3.925-13.269,6.454c-4.799,1.654-22.316,6.261-45.285-4.185
	c-16.804-7.623-17.711-22.059-17.711-22.221C94.129,84.652,93.837,84.49,93.481,84.523z"/>
<path d="M152.747,100.546c-3.989-3.504-7.298-10.444-12.229-21.961c-2.108-4.931-8.662-16.577-24.07-17.874
	c-8.5-0.714-14.89,1.363-19.01,6.164c-4.768,5.58-3.892,12.911-3.729,13.56c0.098,0.325,0.422,0.552,0.777,0.455
	c0.357-0.065,0.553-0.422,0.487-0.779c-0.162-0.779-0.063-7.429,4.379-12.359c3.698-4.121,9.439-5.872,17.03-5.223
	c14.208,1.2,20.275,12.035,22.221,16.641c4.834,11.418,9.182,18.814,13.3,22.644"/>
<path d="M173.216,75.699c5.904,7.202,1.232,12.489,1.168,12.522c-0.228,0.292-0.616,0.323-0.908,0.097
	c-0.162-0.13-0.227-0.292-0.26-0.487c0-0.162,0.033-0.292,0.129-0.421c0.098-0.098,1.299-1.72,1.202-4.348
	c-0.065-1.751-0.714-3.925-2.693-6.423c-1.686-2.141-3.99-3.634-5.482-4.379c0.455,0.777,0.877,1.882,0.94,3.309
	c0.033,0.941-0.096,2.011-0.485,3.211c-0.261,0.812-0.357,1.557-0.324,2.206c0.063,1.979,0.616,3.017,0.681,3.146
	c0.163,0.292,0.229,0.486,0.163,0.552c-0.098,0.098-0.422-0.033-0.617-0.129c-0.193-0.099-1.687-0.941-5.644,0.94
	c-3.277,1.588-5.418,1.135-6.716,0.39c0.746,1.783,2.337,4.508,4.802,5.579c7.137,3.114,11.224-1.2,11.387-1.395
	c0.259-0.26,0.647-0.292,0.908-0.033c0.259,0.228,0.291,0.649,0.032,0.909c-0.065,0.064-4.803,5.646-13.14,2.011
	c-4.347-1.914-5.871-7.753-5.839-8.727c0-0.486,0.357-0.648,0.454-0.713c0.097-0.032,0.487-0.129,0.812,0.227
	c0.648,0.713,2.399,2.596,6.684,0.422c2.303-1.136,3.666-1.395,5.287-0.843c-0.389-0.682-0.812-1.395-0.844-2.303
	c-0.032-0.778,0.064-1.688,0.422-2.66c0.355-1.07,0.486-1.979,0.455-2.758c-0.065-1.914-0.812-3.082-1.267-3.697
	c-0.228-0.292-0.389-0.52-0.422-0.779c0,0,0-0.032,0-0.064c0-0.292,0.194-0.552,0.485-0.649
	C165.659,70.151,170.426,72.293,173.216,75.699z"/>
<path d="M91.469,80.662c-1.428,0.876-2.077,2.142-1.719,3.407c0.324,1.103,1.362,1.849,2.529,1.849c1.007,0,2.305-0.682,2.368-0.714
	c0.454-0.227,0.683-0.519,0.553-0.681c-0.162-0.228-0.779-0.228-1.168-0.13c0,0-1.038,0.259-1.784,0.259
	c-0.617,0-1.136-0.356-1.297-0.908c-0.195-0.647,0.227-1.362,1.167-1.914c1.297-0.811,3.925-1.168,6.553-0.876
	c3.569,0.39,7.753,1.297,14.144,5.417c3.536,2.271,8.532,5.029,10.804,2.563c0.259-0.261,0.227-0.683-0.032-0.909
	c-0.26-0.259-0.683-0.228-0.909,0.033c-1.2,1.298-4.282,0.356-9.148-2.759c-6.585-4.346-10.964-5.319-14.662-5.707
	C95.913,79.267,93.026,79.69,91.469,80.662z"/>
<path d="M170.232,104.668c-2.011,1.33-3.601,3.342-12.165,3.859c-5.06,0.325-10.834-0.453-16.058-1.849
	c-10.315-2.726-15.863-6.812-21.215-10.737c-1.784-1.297-3.633-2.66-5.58-3.926c-6.812-4.347-11.483-6.422-15.636-6.942
	c-5.288-0.648-5.547,3.245-5.547,3.277c-0.064,0.355,0.031,0.421,0.13,0.454c0.323,0.097,0.584-0.065,0.648-0.52
	c0-0.098,0.584-2.758,4.606-2.239c3.958,0.521,8.466,2.562,15.084,6.91c1.946,1.266,3.666,2.562,5.515,3.957
	c5.45,4.12,10.056,8.468,20.6,11.257c5.353,1.428,12.034,2.076,17.259,1.654c5.902-0.486,10.186-2.659,12.586-4.087
	c0.193-0.098,0.355-0.228,0.552-0.324"/>
<path d="M121.671,84.393c-0.033,0.097-0.909,2.465,0.94,4.281c1.751,1.75,4.51,1.33,4.541,1.33c0.228-0.032,0.521-0.194,0.487-0.552
	c-0.032-0.324-0.356-0.356-0.584-0.389c0,0-2.238-0.033-3.568-1.33c-1.231-1.232-0.875-2.952-0.844-3.018
	c0.099-0.292-0.063-0.583-0.324-0.681C122.059,83.939,121.768,84.101,121.671,84.393z"/>
<path d="M117.485,71.676c-0.843,1.006-1.199,2.434-0.94,3.99c0.422,2.79,2.595,4.995,4.963,4.995c1.006,0,1.947-0.421,2.627-1.2
	c0.844-1.005,1.201-2.433,0.941-3.99l0,0c-0.454-2.79-2.627-4.995-4.964-4.995C119.076,70.477,118.167,70.898,117.485,71.676z
	 M117.81,75.44c-0.194-1.168,0.065-2.238,0.648-2.952c0.422-0.487,0.974-0.747,1.622-0.747c1.653,0,3.341,1.784,3.697,3.893l0,0
	c0.194,1.169-0.064,2.238-0.648,2.952c-0.421,0.487-0.972,0.746-1.622,0.746C119.821,79.365,118.134,77.581,117.81,75.44z"/>
<path d="M117.842,74.401c-0.551,0.648-0.778,1.557-0.616,2.531c0.292,1.751,1.654,3.146,3.179,3.146c0.683,0,1.298-0.292,1.72-0.811
	c0.552-0.649,0.778-1.558,0.617-2.53l0,0c-0.292-1.752-1.654-3.147-3.18-3.147C118.913,73.589,118.296,73.881,117.842,74.401z
	 M118.524,76.737c-0.097-0.584,0.033-1.136,0.325-1.493c0.194-0.227,0.454-0.355,0.746-0.355c0.843,0,1.719,0.939,1.881,2.044
	c0.032,0.129,0.032,0.259,0.032,0.389c0,0.454-0.129,0.844-0.356,1.103c-0.194,0.229-0.455,0.357-0.747,0.357
	C119.562,78.78,118.686,77.838,118.524,76.737z"/>
<path d="M97.633,89.94c-0.227,0.064-0.39,0.355-0.325,0.682c0.065,0.259,1.752,7.655,11.775,13.98
	c11.029,7.007,22.221,8.305,26.99,8.889l1.395,0.162c0.356,0.033,0.681-0.194,0.747-0.552c0.031-0.356-0.195-0.682-0.553-0.713
	l-1.428-0.195c-4.705-0.551-15.669-1.849-26.438-8.693c-9.603-6.064-11.613-13.105-11.613-13.17
	C98.121,90.037,97.859,89.841,97.633,89.94z"/>
<path d="M102.434,90.783c-0.227,0.098-0.389,0.39-0.292,0.682c0.064,0.229,1.913,6.779,9.829,12.134
	c8.336,5.677,20.566,8.012,24.556,8.791l0.975,0.193c0.356,0.064,0.715-0.162,0.777-0.519c0.065-0.357-0.16-0.683-0.485-0.747
	l-0.975-0.194c-3.957-0.746-15.959-3.081-24.068-8.596c-7.494-5.093-9.667-11.322-9.667-11.387
	C102.92,90.879,102.662,90.718,102.434,90.783z"/>
<path d="M108.143,92.535c-0.26,0.098-0.389,0.454-0.324,0.812c0.032,0.229,1.33,5.353,7.299,9.473
	c7.332,5.062,21.767,8.532,22.351,8.661c0.356,0.098,0.714-0.129,0.778-0.486c0.098-0.355-0.129-0.713-0.486-0.777
	c-0.163-0.032-14.792-3.536-21.929-8.468c-5.547-3.828-7.138-8.692-7.138-8.726C108.663,92.631,108.403,92.437,108.143,92.535z"/>
<path fill="none" stroke="#000000" stroke-width="1.4713" stroke-linecap="round" d="M170.914,88.642
	c0.907,1.622,1.427,3.471,1.427,5.449c0,6.196-4.995,11.191-11.191,11.191c-2.691,0-5.288-0.844-7.104-2.53
	c-3.018-2.821-4.282-4.51-4.282-4.51"/>
<path fill="none" stroke="#000000" stroke-width="1.4713" stroke-linecap="round" d="M172.245,86.988
	c1.265,1.881,2.141,4.119,2.399,6.553c0.552,4.995-1.492,9.634-5.027,12.457c-1.883,1.524-4.444,2.822-6.78,3.925"/>
<path fill="#3366FF" d="M139.87,95.389c0,0,7.654,4.997,8.077,12.066c0.422,7.072,0.13,9.116,1.298,10.608
	c1.168,1.493-12.879,0.13-17.874-11.484c-2.726-6.325-1.721-8.822-1.721-8.822"/>
<path d="M139.642,95.259c-0.064,0.064-0.064,0.161-0.064,0.228c0,0.13,0.064,0.259,0.228,0.356
	c0.064,0.032,7.429,5.027,7.331,11.483c0,0.616-0.032,1.816-0.098,4.347c-0.064,2.562,0.876,5.028,1.945,6.325
	c-2.595,0-12.909-2.433-16.933-11.711c-1.557-3.567-1.784-5.839-1.849-7.104c-0.033-0.845-0.099-1.136-0.131-1.46
	c-0.032-0.228-0.098-0.454-0.26-0.553c-0.193-0.097-0.421,0.032-0.551,0.356c-0.098,0.229-1.297,2.888,1.492,9.311
	c3.925,9.084,12.424,12.036,17.29,12.134c1.33,0.031,2.044-0.13,2.335-0.521c0.195-0.259,0.132-0.551-0.162-0.812
	c-0.876-0.745-1.783-3.017-1.622-5.838c0.034-0.975,0.325-2.692,0.228-5.158c-0.292-8.337-8.271-11.419-8.498-11.548
	C140.063,95.001,139.771,95.065,139.642,95.259z"/>
<rect x="88.926" y="45.776" fill="none" width="88" height="88"/>
</svg>
